<svg viewBox="0 0 15 15" fill="none" xmlns="http://www.w3.org/2000/svg">
	<path d="M5.46651 8.27543C5.46651 8.08753 5.3141 7.9353 5.12604 7.9353H3.93794C3.7501 7.9353 3.59766 8.08753 3.59766 8.27543V9.46338C3.59766 9.65153 3.7501 9.80382 3.93794 9.80382H5.12604C5.3141 9.80382 5.46651 9.65153 5.46651 9.46338V8.27543Z" fill="#D6D6D6" />
	<path d="M8.43313 8.27543C8.43313 8.08753 8.28069 7.9353 8.093 7.9353H6.90474C6.7169 7.9353 6.56445 8.08753 6.56445 8.27543V9.46338C6.56445 9.65153 6.7169 9.80382 6.90474 9.80382H8.093C8.28069 9.80382 8.43313 9.65153 8.43313 9.46338V8.27543Z" fill="#D6D6D6" />
	<path d="M11.404 8.27543C11.404 8.08753 11.2516 7.9353 11.0637 7.9353H9.87562C9.68757 7.9353 9.53516 8.08753 9.53516 8.27543V9.46338C9.53516 9.65153 9.68757 9.80382 9.87562 9.80382H11.0637C11.2516 9.80382 11.404 9.65153 11.404 9.46338V8.27543Z" fill="#D6D6D6" />
	<path d="M5.46651 11.2449C5.46651 11.0566 5.3141 10.9045 5.12604 10.9045H3.93794C3.7501 10.9045 3.59766 11.0566 3.59766 11.2449V12.4326C3.59766 12.6206 3.7501 12.7729 3.93794 12.7729H5.12604C5.3141 12.7729 5.46651 12.6206 5.46651 12.4326V11.2449Z" fill="#D6D6D6" />
	<path d="M8.43313 11.2449C8.43313 11.0566 8.28069 10.9045 8.093 10.9045H6.90474C6.7169 10.9045 6.56445 11.0566 6.56445 11.2449V12.4326C6.56445 12.6206 6.7169 12.7729 6.90474 12.7729H8.093C8.28069 12.7729 8.43313 12.6206 8.43313 12.4326V11.2449Z" fill="#D6D6D6" />
	<path d="M11.404 11.2449C11.404 11.0566 11.2516 10.9045 11.0639 10.9045H9.87562C9.68757 10.9045 9.53516 11.0566 9.53516 11.2449V12.4326C9.53516 12.6206 9.68757 12.7729 9.87562 12.7729H11.0639C11.2516 12.7729 11.404 12.6206 11.404 12.4326V11.2449Z" fill="#D6D6D6" />
	<path d="M13.5279 1.67009V3.48459C13.5279 4.30472 12.8626 4.96562 12.0426 4.96562H11.1056C10.2855 4.96562 9.61138 4.30472 9.61138 3.48459V1.66357H5.38811V3.48459C5.38811 4.30472 4.71399 4.96562 3.89404 4.96562H2.95687C2.13689 4.96562 1.47159 4.30472 1.47159 3.48459V1.67009C0.75492 1.69169 0.166016 2.28471 0.166016 3.01362V13.6474C0.166016 14.39 0.767918 14.9999 1.51053 14.9999H13.489C14.2305 14.9999 14.8335 14.3888 14.8335 13.6474V3.01362C14.8335 2.28471 14.2446 1.69169 13.5279 1.67009ZM13.0927 12.9852C13.0927 13.3062 12.8325 13.5665 12.5115 13.5665H2.46242C2.14137 13.5665 1.88117 13.3062 1.88117 12.9852V7.49249C1.88117 7.17144 2.14134 6.91108 2.46242 6.91108H12.5114C12.8325 6.91108 13.0927 7.17144 13.0927 7.49249L13.0927 12.9852Z" fill="#D6D6D6" />
	<path d="M2.95472 3.99297H3.88155C4.16286 3.99297 4.39096 3.76521 4.39096 3.48389V0.509257C4.39096 0.227911 4.16286 0 3.88155 0H2.95472C2.67338 0 2.44531 0.227911 2.44531 0.509257V3.48389C2.44531 3.76521 2.67338 3.99297 2.95472 3.99297Z" fill="#D6D6D6" />
	<path d="M11.0934 3.99297H12.0202C12.3013 3.99297 12.5294 3.76521 12.5294 3.48389V0.509257C12.5294 0.227911 12.3013 0 12.0202 0H11.0934C10.8121 0 10.584 0.227911 10.584 0.509257V3.48389C10.584 3.76521 10.8121 3.99297 11.0934 3.99297Z" fill="#D6D6D6" />
</svg>