<svg viewBox="0 0 16 15" fill="none" xmlns="http://www.w3.org/2000/svg">
	<g clip-path="url(#clip0)">
		<path d="M7.875 0C3.53273 0 0 3.3645 0 7.5C0 11.6355 3.53273 15 7.875 15C12.2173 15 15.75 11.6355 15.75 7.5C15.75 3.3645 12.2173 0 7.875 0ZM7.875 13.4041C4.45672 13.4041 1.6755 10.7557 1.6755 7.5C1.6755 4.24434 4.45672 1.59587 7.875 1.59587C11.2933 1.59587 14.0745 4.24434 14.0745 7.5C14.0745 10.7557 11.2933 13.4041 7.875 13.4041Z" fill="#D6D6D6" />
		<path d="M11.9785 7.26828H8.43941V3.21568C8.43941 2.87465 8.14908 2.59814 7.79099 2.59814C7.43291 2.59814 7.14258 2.87465 7.14258 3.21568V7.88581C7.14258 8.22685 7.43291 8.50335 7.79099 8.50335H11.9785C12.3365 8.50335 12.6269 8.22685 12.6269 7.88581C12.6269 7.54478 12.3365 7.26828 11.9785 7.26828Z" fill="#D6D6D6" />
	</g>
	<defs>
		<clipPath id="clip0">
			<rect width="15.75" height="15" fill="white" />
		</clipPath>
	</defs>
</svg>