<svg viewBox="0 0 26 25" fill="none" xmlns="http://www.w3.org/2000/svg">
	<path d="M12.4992 24.9986C19.4023 24.9986 24.9984 19.4024 24.9984 12.4993C24.9984 5.59612 19.4023 0 12.4992 0C5.59608 0 0 5.59612 0 12.4993C0 19.4024 5.59608 24.9986 12.4992 24.9986Z" fill="#F0F0F0" />
	<path d="M11.9588 12.5008H25.0014C25.0014 11.3726 24.851 10.2797 24.5708 9.2401H11.9588V12.5008ZM11.9588 5.97945H23.1668C22.4025 4.73303 21.4265 3.62957 20.2827 2.71875H11.9588V5.97945ZM12.5022 25.0001C15.4438 25.0001 18.1476 23.9833 20.2827 22.2828H4.72164C6.85676 23.9833 9.56054 25.0001 12.5022 25.0001ZM1.83756 19.0222H23.1668C23.7885 18.0081 24.2613 16.91 24.5708 15.7615H0.433594C0.74309 16.91 1.2159 18.0081 1.83756 19.0222Z" fill="#D80027" />
	<path d="M5.78986 1.95194H6.92889L5.86939 2.72167L6.2741 3.96715L5.21465 3.19742L4.1552 3.96715L4.50478 2.89119C3.57021 3.66974 2.75361 4.57985 2.08053 5.59304H2.4455L1.77108 6.083C1.66591 6.25851 1.56507 6.43658 1.46865 6.61705L1.7907 7.60825L1.18986 7.1717C1.03991 7.4892 0.903535 7.81292 0.781101 8.14201L1.13591 9.23413H2.4455L1.38599 10.0039L1.7907 11.2493L0.731251 10.4796L0.0966246 10.9407C0.0322747 11.4577 4.72546e-06 11.9783 0 12.4993H12.4992V0C10.03 0 7.72826 0.716267 5.78986 1.95194ZM6.2741 11.2493L5.21465 10.4796L4.1552 11.2493L4.55991 10.0039L3.50041 9.23413H4.80999L5.21465 7.98865L5.61931 9.23413H6.92889L5.86939 10.0039L6.2741 11.2493ZM5.86939 6.36277L6.2741 7.60825L5.21465 6.83852L4.1552 7.60825L4.55991 6.36277L3.50041 5.59304H4.80999L5.21465 4.34755L5.61931 5.59304H6.92889L5.86939 6.36277ZM10.7575 11.2493L9.69805 10.4796L8.6386 11.2493L9.04331 10.0039L7.98381 9.23413H9.29339L9.69805 7.98865L10.1027 9.23413H11.4123L10.3528 10.0039L10.7575 11.2493ZM10.3528 6.36277L10.7575 7.60825L9.69805 6.83852L8.6386 7.60825L9.04331 6.36277L7.98381 5.59304H9.29339L9.69805 4.34755L10.1027 5.59304H11.4123L10.3528 6.36277ZM10.3528 2.72167L10.7575 3.96715L9.69805 3.19742L8.6386 3.96715L9.04331 2.72167L7.98381 1.95194H9.29339L9.69805 0.706453L10.1027 1.95194H11.4123L10.3528 2.72167Z" fill="#0052B4" />
</svg>
