<svg viewBox="0 0 25 25" fill="none" xmlns="http://www.w3.org/2000/svg">
	<path d="M12.5 25C19.4036 25 25 19.4036 25 12.5C25 5.59644 19.4036 0 12.5 0C5.59644 0 0 5.59644 0 12.5C0 19.4036 5.59644 25 12.5 25Z" fill="#F0F0F0" />
	<path d="M2.58696 4.88965C1.60508 6.16714 0.864697 7.63955 0.433594 9.23911H6.93643L2.58696 4.88965Z" fill="#0052B4" />
	<path d="M24.5691 9.23906C24.138 7.63955 23.3976 6.16714 22.4158 4.88965L18.0664 9.23906H24.5691Z" fill="#0052B4" />
	<path d="M0.433594 15.7617C0.864746 17.3612 1.60513 18.8336 2.58696 20.1111L6.93628 15.7617H0.433594Z" fill="#0052B4" />
	<path d="M20.1111 2.58408C18.8336 1.6022 17.3613 0.861816 15.7617 0.430664V6.93345L20.1111 2.58408Z" fill="#0052B4" />
	<path d="M4.89062 22.4167C6.16812 23.3986 7.64053 24.139 9.24004 24.5701V18.0674L4.89062 22.4167Z" fill="#0052B4" />
	<path d="M9.23999 0.430664C7.64048 0.861816 6.16807 1.6022 4.89062 2.58403L9.23999 6.9334V0.430664Z" fill="#0052B4" />
	<path d="M15.7617 24.5701C17.3612 24.139 18.8336 23.3986 20.1111 22.4167L15.7617 18.0674V24.5701Z" fill="#0052B4" />
	<path d="M18.0664 15.7617L22.4158 20.1111C23.3976 18.8337 24.138 17.3612 24.5691 15.7617H18.0664Z" fill="#0052B4" />
	<path d="M24.8942 10.8696H14.1305H14.1305V0.105811C13.5967 0.0363281 13.0526 0 12.5 0C11.9473 0 11.4033 0.0363281 10.8696 0.105811V10.8695V10.8695H0.105811C0.0363281 11.4033 0 11.9474 0 12.5C0 13.0527 0.0363281 13.5967 0.105811 14.1304H10.8695H10.8695V24.8942C11.4033 24.9637 11.9473 25 12.5 25C13.0526 25 13.5967 24.9637 14.1304 24.8942V14.1305V14.1305H24.8942C24.9637 13.5967 25 13.0527 25 12.5C25 11.9474 24.9637 11.4033 24.8942 10.8696Z" fill="#D80027" />
	<path d="M15.7578 15.7613L21.3357 21.3392C21.5923 21.0828 21.837 20.8146 22.0705 20.5367L17.295 15.7612H15.7578V15.7613Z" fill="#D80027" />
	<path d="M9.23813 15.7612H9.23804L3.66016 21.3391C3.9166 21.5957 4.18472 21.8404 4.46265 22.0739L9.23813 17.2983V15.7612Z" fill="#D80027" />
	<path d="M9.23848 9.2397V9.2396L3.66055 3.66162C3.404 3.91807 3.15928 4.18618 2.92578 4.46411L7.70132 9.23965H9.23848V9.2397Z" fill="#D80027" />
	<path d="M15.7578 9.2395L21.3358 3.66147C21.0793 3.40493 20.8112 3.1602 20.5333 2.92676L15.7578 7.70229V9.2395Z" fill="#D80027" />
</svg>
