<svg viewBox="0 0 25 25" fill="none" xmlns="http://www.w3.org/2000/svg">
	<path d="M12.5 25C19.4036 25 25 19.4036 25 12.5C25 5.59644 19.4036 0 12.5 0C5.59644 0 0 5.59644 0 12.5C0 19.4036 5.59644 25 12.5 25Z" fill="#0052B4" />
	<path d="M12.4993 4.8916L12.9041 6.13716H14.2136L13.1541 6.90693L13.5588 8.15249L12.4993 7.38267L11.4397 8.15249L11.8445 6.90693L10.785 6.13716H12.0946L12.4993 4.8916ZM7.11909 7.12012L8.28608 7.71465L9.21211 6.78867L9.00718 8.08213L10.1741 8.67671L8.88061 8.88159L8.67573 10.1751L8.08115 9.0082L6.7877 9.21313L7.71372 8.28711L7.11909 7.12012ZM4.89063 12.5003L6.13618 12.0956V10.7859L6.90591 11.8455L8.15151 11.4408L7.38164 12.5003L8.15151 13.5598L6.90591 13.1551L6.13618 14.2146V12.905L4.89063 12.5003ZM7.11909 17.8805L7.71367 16.7135L6.7877 15.7875L8.0812 15.9924L8.67568 14.8255L8.88061 16.119L10.1741 16.3239L9.00728 16.9185L9.21211 18.2119L8.28608 17.2859L7.11909 17.8805ZM12.4993 20.109L12.0945 18.8634H10.785L11.8445 18.0937L11.4397 16.8482L12.4993 17.6179L13.5588 16.8482L13.1541 18.0937L14.2136 18.8634H12.904L12.4993 20.109ZM17.8795 17.8805L16.7125 17.2859L15.7865 18.212L15.9914 16.9184L14.8246 16.3239L16.118 16.119L16.3229 14.8255L16.9174 15.9924L18.2109 15.7875L17.2849 16.7136L17.8795 17.8805ZM20.108 12.5003L18.8624 12.905V14.2146L18.0926 13.1551L16.8472 13.5598L17.6169 12.5003L16.8472 11.4408L18.0927 11.8455L18.8624 10.7859V12.0956L20.108 12.5003ZM17.8795 7.12012L17.2849 8.28711L18.2109 9.21313L16.9174 9.00815L16.3229 10.1751L16.118 8.88159L14.8246 8.67666L15.9914 8.08213L15.7865 6.78872L16.7126 7.7147L17.8795 7.12012Z" fill="#FFDA44" />
</svg>
