<svg xmlns="http://www.w3.org/2000/svg" viewBox="0 0 111.25 20.79">
	<path d="M16 2c.09 0 .81.36.64.16a2.4 2.4 0 0 0-.64-.5C4-5.26-5.52 11.19 3.7 18.67a3.07 3.07 0 0 0 .68.49c.11 0 2.17 1.48.66-.9C-.68 9.25 6.11-2.79 16 2m4.3 7.19a10.36 10.36 0 0 0-1.09-3.8C15.3.69.27 5.53 5.41 17.68c.16.37.37.58.47.51s.57-.11.52-.48C5 8.21 17 5.94 20.3 9.19M8.18 19c.08.27.08.37.16.41s1.12.34 1.15.07c.34-2.93 8.33-6 8.87-3.45a10.16 10.16 0 0 0 1.74-3.43.38.38 0 0 1 .07-.24c-.71-2.29-14 0-12 6.66" fill="#262e45" opacity=".4" />
	<path d="M5.4 1.13c.3-.27.6-.52.48-.54a2.47 2.47 0 0 0-.77.35c-7.45 4.24-5.69 17.42 4 19.8h.85a10.21 10.21 0 0 0 3.34-.56A11.81 11.81 0 0 0 15.67 19l.29-.2C7.51 21.49-2.24 8.42 5.4 1.13m1.26 1.1c.07-.36.11-.51 0-.6s-.29.13-.53.46c-4.78 6.58 5.67 16.58 12.47 14a10.68 10.68 0 0 0 1.52-3.69C16.42 15.27 5.49 8.53 6.67 2.24M19.2 5.37c-.83 2.46-8.55-1.78-9.72-4.11C9.35 1 9.25.95 9.2 1s-.15.12-.2.39c-.72 3.46 7 9.73 11.33 8.12a1.16 1.16 0 0 0 0-.3 10.61 10.61 0 0 0-1.12-3.8M27.78 15.49V5.72h6.91v1.41h-5.37V9.2h2.6a3.76 3.76 0 0 1 2.63.88 2.91 2.91 0 0 1 1 2.28 2.91 2.91 0 0 1-1 2.28 3.77 3.77 0 0 1-2.63.87zm1.54-1.41h2.46c1.38 0 2.17-.63 2.17-1.73s-.81-1.75-2.17-1.75h-2.46zM37.81 15.49V5.72h1.54v4l4-4h2l-4.55 4.47 5.26 5.31H44l-4.66-4.7v4.69zM47.92 14.25a4.9 4.9 0 0 1-1.47-3.64A4.85 4.85 0 0 1 47.92 7a5 5 0 0 1 3.69-1.44 5.31 5.31 0 0 1 2.66.66v1.52A4.75 4.75 0 0 0 51.63 7 3.51 3.51 0 0 0 48 10.61a3.51 3.51 0 0 0 3.65 3.63 4.36 4.36 0 0 0 2.8-.89v1.55a5.21 5.21 0 0 1-2.87.78 5.13 5.13 0 0 1-3.66-1.43zM61.15 14.46a5.11 5.11 0 0 1-1-3.3 5.31 5.31 0 0 1 1.06-3.52 3.92 3.92 0 0 1 1.34-1A9.16 9.16 0 0 1 64.36 6q.94-.23 2.31-.46v1.4a27.4 27.4 0 0 0-2.82.63 3.11 3.11 0 0 0-2 1.66 3.47 3.47 0 0 0-.25 1.16A3.31 3.31 0 0 1 64.33 9a3.06 3.06 0 0 1 2.22.87 3 3 0 0 1 .88 2.26 3.37 3.37 0 0 1-1 2.56 3.44 3.44 0 0 1-2.5 1 3.36 3.36 0 0 1-2.78-1.23zm4.21-.7a2.09 2.09 0 0 0 .57-1.51 1.86 1.86 0 0 0-2-1.94 2.8 2.8 0 0 0-2.32 1.38c.07 1.68.88 2.65 2.26 2.65a1.93 1.93 0 0 0 1.48-.58zM75.79 9.5a3.69 3.69 0 0 1 .94 2.57 3.68 3.68 0 0 1-.94 2.56 3.08 3.08 0 0 1-2.39 1 2.91 2.91 0 0 1-2.4-1.07v3.73h-1.55V8.64H71v.94a2.91 2.91 0 0 1 2.4-1.12 3.08 3.08 0 0 1 2.39 1.04zM71 11v2.12a2.36 2.36 0 0 0 2 1.21 2.12 2.12 0 0 0 1.58-.66 2.29 2.29 0 0 0 .63-1.62 2.24 2.24 0 0 0-.63-1.62A2.08 2.08 0 0 0 73 9.78 2.32 2.32 0 0 0 71 11zM79.32 14.63a3.44 3.44 0 0 1-1.06-2.57 3.43 3.43 0 0 1 1.06-2.56 4 4 0 0 1 5.41 0 3.43 3.43 0 0 1 1.06 2.56 3.49 3.49 0 0 1-1.06 2.57 4 4 0 0 1-5.41 0zm4.32-.94a2.21 2.21 0 0 0 .64-1.63 2.26 2.26 0 1 0-4.51 0A2.22 2.22 0 0 0 82 14.35a2.18 2.18 0 0 0 1.63-.66zM87.8 15.49V8.64h1.51v2.6L92 8.64h1.93l-3.26 3.07 3.75 3.78h-2.05l-3.06-3.1v3.1zM96.11 9.49a3.36 3.36 0 0 1 2.54-1 2.92 2.92 0 0 1 1.8.56 3.63 3.63 0 0 1 1.45 3.1v.39h-5.24a2.34 2.34 0 0 0 2.59 1.84 4.25 4.25 0 0 0 2.21-.61V15a4.28 4.28 0 0 1-2.53.67 3.87 3.87 0 0 1-2.7-1 3.38 3.38 0 0 1-1.09-2.61 3.57 3.57 0 0 1 .97-2.57zm4.28 1.87a1.66 1.66 0 0 0-.49-1.13 1.73 1.73 0 0 0-1.31-.5 1.83 1.83 0 0 0-1.91 1.63zM110.32 9.5a3.69 3.69 0 0 1 .94 2.57 3.68 3.68 0 0 1-.94 2.56 3.08 3.08 0 0 1-2.39 1 2.91 2.91 0 0 1-2.45-1.12v3.73H104v-9.6h1.51v.94a2.91 2.91 0 0 1 2.45-1.12 3.08 3.08 0 0 1 2.36 1.04zm-4.84 1.5v2.12a2.36 2.36 0 0 0 2 1.21 2.12 2.12 0 0 0 1.58-.66 2.29 2.29 0 0 0 .63-1.62 2.24 2.24 0 0 0-.63-1.62 2.08 2.08 0 0 0-1.58-.67 2.32 2.32 0 0 0-2 1.24z" fill="#262e45" />
</svg>
